<svg width="308" height="65" viewBox="0 0 308 65" fill="none" xmlns="http://www.w3.org/2000/svg">
<g clip-path="url(#clip0_57_49)">
<path d="M6.81251 0L35.1366 9.6262L63.4607 0C65.6352 0.547154 65.8591 2.38336 66.1205 4.31231C68.0616 18.7516 67.6976 34.1461 69.8535 48.6503C70.3854 54.1775 69.5641 58.9535 63.1154 59.5192C45.057 58.2951 24.9642 61.0772 7.14848 59.5192C2.99553 59.1575 0.251777 56.5609 -0.00953293 52.3876L4.17142 2.94907C4.38607 1.49308 5.41264 0.417321 6.81251 0ZM35.3699 16.7763V51.4139C35.3699 51.4603 36.0232 52.1094 36.0699 52.1094H62.6301C63.47 52.1094 63.3674 49.7446 63.33 49.114C62.5554 36.6871 61.4169 23.1567 60.073 10.7761C59.9797 9.88586 59.7744 9.03267 59.3637 8.22585L35.3699 16.7763Z" fill="black"/>
<path d="M160.733 18.8536L168.647 39.1725L176.113 18.8536H185.903C186.006 19.373 185.819 19.7717 185.679 20.2447C183.019 29.2774 176.253 44.1433 172.138 53.009C168.302 61.2627 162.861 68.2366 152.81 63.4142V55.7911C158.223 57.4048 161.872 55.55 163.057 50.0507L150.477 18.8444H160.733V18.8536Z" fill="black"/>
<path d="M238.473 18.0654C259.91 16.3404 264.371 46.1557 244.642 50.9595C219.724 57.0338 214.003 20.0221 238.473 18.0654ZM237.512 27.2742C233.079 28.1738 231.324 34.007 232.743 37.7907C235.123 44.1247 244.819 44.1247 247.19 37.7907C249.56 31.4567 244.408 25.8646 237.512 27.2742Z" fill="black"/>
<path d="M284.706 37.3271C284.622 43.2438 292.769 45.1727 296.838 41.7321C297.445 41.2221 298.36 39.627 298.5 39.6177C298.891 39.5899 305.294 42.1031 305.863 42.4648C307.3 43.4014 305.863 44.5885 304.995 45.6457C295.849 56.7742 276.111 51.5716 274.916 36.6501C273.199 15.3296 302.596 11.0637 307.337 30.381C307.599 31.4568 308.728 37.3271 307.319 37.3271H284.715H284.706ZM298.22 30.8632C296.829 24.0006 286.097 24.0006 284.706 30.8632H298.22Z" fill="black"/>
<path d="M271.193 5.92603V50.0322C271.193 50.0785 270.539 50.7277 270.493 50.7277H261.403V5.92603H271.193Z" fill="black"/>
<path d="M108.07 5.92603L121.817 36.409L135.564 5.92603H147.677V50.0322C147.677 50.0785 147.024 50.7277 146.977 50.7277H138.121C138.074 50.7277 137.421 50.0878 137.421 50.0322V23.9357L125.074 50.264C124.505 50.9503 118.121 51.3491 117.739 49.6798L105.261 23.0176V50.7277H96.1712C96.1246 50.7277 95.4713 50.0878 95.4713 50.0322V5.92603H108.051H108.07Z" fill="black"/>
<path d="M208.04 5.92601C222.393 7.84569 225.911 27.6081 212.015 32.7273L211.987 33.3857L223.644 50.7184H211.997L201.759 35.2312C201.078 34.3502 199.939 34.5264 198.95 34.5542V50.7184H189.16V5.92601C195.04 6.49171 202.338 5.16556 208.03 5.92601H208.04ZM198.95 26.2449C203.597 26.4489 210.634 26.6993 210.634 20.4766C210.634 17.9727 208.226 14.7083 205.707 14.7083H198.95V26.2542V26.2449Z" fill="black"/>
</g>
<defs>
<clipPath id="clip0_57_49">
<rect width="308" height="65" fill="white"/>
</clipPath>
</defs>
</svg>
